<?xml version="1.0" encoding="utf-8"?>
<!-- Generator: Adobe Illustrator 16.0.0, SVG Export Plug-In . SVG Version: 6.00 Build 0)  -->
<!DOCTYPE svg PUBLIC "-//W3C//DTD SVG 1.1//EN" "http://www.w3.org/Graphics/SVG/1.1/DTD/svg11.dtd">
<svg version="1.1" id="Capa_1" xmlns="http://www.w3.org/2000/svg" xmlns:xlink="http://www.w3.org/1999/xlink" x="0px" y="0px"
	 width="273.906px" height="119.262px" viewBox="0 0 273.906 119.262" enable-background="new 0 0 273.906 119.262"
	 xml:space="preserve">
<g>
	<g>
		<g>
			<path fill="#C22E31" d="M62.221,31.401c3.902-5.453,5.854-9.729,5.854-12.83c0-2.191-1.042-3.902-3.127-5.133
				c-1.551-0.908-3.608-1.363-6.175-1.363c-4.705,0-9.623,0.562-14.755,1.685c-9.677,2.085-17.481,4.49-23.415,7.217
				c-4.385,1.979-6.576,3.823-6.576,5.533c0,0.91,0.588,1.765,1.765,2.566c0.32,0.268,0.267,0.4-0.16,0.4
				c-0.429,0-0.75-0.08-0.963-0.24c-1.604-1.068-2.405-2.458-2.405-4.17c0-1.71,0.493-3.408,1.483-5.092
				c0.988-1.685,2.606-3.141,4.852-4.371c5.132-2.939,11.279-5.318,18.443-7.136C44.739,6.49,51.929,5.5,58.612,5.5
				c7.057,0,11.6,1.311,13.632,3.93c1.336,1.657,2.005,3.3,2.005,4.931s-0.32,3.247-0.962,4.852
				c-1.177,3.261-3.075,6.469-5.693,9.622l-2.967,3.528c0.802,0.429,1.523,0.963,2.165,1.604c0.533,0.642,0.668,1.162,0.4,1.563
				s-0.749,0.375-1.443-0.08c-0.695-0.454-1.577-0.868-2.646-1.243c-7.377,8.821-11.547,13.887-12.509,15.196
				c-0.963,1.311-1.738,2.353-2.326,3.127c-0.589,0.775-0.976,1.297-1.162,1.563c-0.188,0.269-0.521,0.75-1.003,1.444
				c-0.481,0.695-0.815,1.256-1.002,1.684c-0.188,0.429-0.415,0.962-0.682,1.604c-0.429,1.015-0.642,2.285-0.642,3.81
				c0,1.523,0.642,2.285,1.925,2.285c0.373,0,0.802-0.067,1.282-0.2c0.481-0.135,0.722-0.068,0.722,0.2
				c0,0.267-0.308,0.493-0.922,0.682c-0.615,0.187-1.283,0.28-2.005,0.28s-1.443-0.32-2.165-0.962s-1.082-1.632-1.082-2.967
				c0-1.337,0.48-2.887,1.443-4.651c0.962-1.764,2.432-3.996,4.41-6.696c1.978-2.698,4.423-5.88,7.337-9.542
				c2.913-3.661,4.852-6.135,5.814-7.418c-1.337-0.16-3.248-0.24-5.733-0.24c-2.486,0-5.895,0.455-10.225,1.363
				c-0.642,0.107-1.483,0.309-2.526,0.602c-1.042,0.294-1.804,0.495-2.285,0.602c-1.979,0.428-3.127,0.4-3.448-0.081
				c-0.749-0.427-1.122-0.935-1.122-1.523c0-0.587,0.507-1.295,1.523-2.125c1.015-0.828,2.646-1.456,4.892-1.884
				c2.245-0.428,4.57-0.642,6.977-0.642C53.987,29.717,58.532,30.278,62.221,31.401z"/>
			<path fill="#C22E31" d="M44.779,71.382c-1.448,0-3.633-0.408-5.819-2.352c-1.336-1.188-2.928-3.379-2.928-7.077
				c0-2.294,0.692-4.677,2.115-7.286c1.09-1.998,2.661-4.391,4.802-7.313c1.67-2.278,3.673-4.902,5.97-7.82
				c-0.994,0.171-2.065,0.377-3.211,0.617l-0.221,0.042c-0.301,0.05-0.883,0.173-1.947,0.472c-1.175,0.332-1.999,0.547-2.585,0.677
				c-1.351,0.292-2.464,0.432-3.428,0.432c-2.179,0-3.654-0.732-4.618-1.537c-2.052-1.425-3.212-3.526-3.212-5.869
				c0-3.49,2.668-5.669,3.545-6.385c1.751-1.43,4.152-2.42,7.341-3.027c2.573-0.489,5.267-0.738,8.006-0.738
				c4.137,0,7.886,0.315,11.198,0.941c2.553-4.121,2.787-6.033,2.787-6.588c0-0.055-0.003-0.092-0.006-0.113
				c-0.021-0.003-0.14-0.12-0.416-0.283c-0.373-0.218-1.331-0.6-3.38-0.6c-4.288,0-8.856,0.524-13.579,1.558
				c-9.258,1.994-16.753,4.295-22.294,6.842c-0.8,0.36-1.442,0.682-1.956,0.962c0.639,1.344,0.739,2.878,0.219,4.313
				c-0.653,1.802-2.449,3.727-5.531,3.727c-1.57,0-2.949-0.411-4.104-1.224c-3.073-2.086-4.765-5.167-4.765-8.687
				c0-2.699,0.755-5.351,2.242-7.88c1.482-2.526,3.805-4.674,6.901-6.38c5.532-3.162,12.187-5.743,19.781-7.67
				C43.787,1.056,51.505,0,58.612,0c8.901,0,14.771,1.967,17.943,6.014c2.119,2.643,3.193,5.45,3.193,8.347
				c0,2.295-0.444,4.584-1.319,6.805c-1.351,3.708-3.487,7.365-6.352,10.876c1.274,2.508,0.759,4.938-0.31,6.54
				c-1.525,2.286-4.452,3.289-7.152,2.393c-6.895,8.267-9.046,10.944-9.59,11.686c-0.984,1.34-1.777,2.405-2.378,3.196
				c-0.524,0.691-0.87,1.154-1.036,1.392l-0.99,1.425c-0.379,0.548-0.491,0.773-0.495,0.782c-0.04,0.091-0.082,0.188-0.127,0.291
				c1.917,0.934,3.206,2.878,3.206,5.175c0,2.158-1.264,4.852-4.809,5.939C47.249,71.208,46.037,71.382,44.779,71.382z"/>
		</g>
		<g>
			<path fill="#C22E31" d="M84.514,46.156c2.833-1.55,4.25-3.127,4.25-4.731c0-1.604-0.963-2.405-2.887-2.405
				c-0.91,0-1.872,0.24-2.887,0.722c-2.246,1.017-4.411,2.78-6.496,5.293c-2.565,3.101-3.849,5.987-3.849,8.66
				c0,1.016,0.28,1.965,0.842,2.847s1.563,1.323,3.007,1.323c2.513,0,5.693-1.323,9.543-3.97c3.849-2.646,7.163-5.305,9.943-7.979
				c0.642-0.642,0.963-0.668,0.963-0.08c0,0.374-0.161,0.695-0.481,0.962c-1.979,1.818-3.302,3.035-3.97,3.648
				c-0.669,0.615-1.992,1.712-3.969,3.288c-1.979,1.577-3.583,2.687-4.812,3.328c-3.797,1.977-7.017,2.967-9.663,2.967
				s-4.731-0.602-6.255-1.805c-1.523-1.202-2.285-2.873-2.285-5.012c0-4.543,2.03-8.46,6.094-11.748
				c4.063-3.287,8.313-4.932,12.751-4.932c2.993,0,4.998,0.642,6.014,1.925c0.428,0.642,0.642,1.323,0.642,2.045
				s-0.24,1.511-0.722,2.365c-0.962,1.658-2.767,3.115-5.413,4.371c-2.646,1.257-5.146,1.884-7.497,1.884
				c-0.91,0-1.403-0.08-1.484-0.24c-0.08-0.16-0.014-0.28,0.201-0.36c0.213-0.081,0.507-0.121,0.882-0.121
				C79.113,48.401,81.627,47.653,84.514,46.156z"/>
			<path fill="#C22E31" d="M74.049,65.529c-3.901,0-7.152-1.006-9.664-2.988c-2.862-2.259-4.376-5.485-4.376-9.328
				c0-6.177,2.813-11.718,8.134-16.023c5.049-4.085,10.503-6.156,16.211-6.156c4.745,0,8.22,1.35,10.326,4.012l0.264,0.362
				c0.913,1.369,1.442,2.918,1.546,4.512c0.077-0.003,0.155-0.005,0.233-0.005c3.208,0,5.721,2.602,5.721,5.922
				c0,1.935-0.845,3.772-2.323,5.069l-3.908,3.593c-0.781,0.719-2.136,1.844-4.26,3.536c-2.274,1.813-4.137,3.09-5.694,3.903
				C81.613,64.355,77.622,65.529,74.049,65.529z"/>
		</g>
		<g>
			<path fill="#C22E31" d="M111.938,46.156c2.833-1.55,4.25-3.127,4.25-4.731c0-1.604-0.963-2.405-2.887-2.405
				c-0.91,0-1.872,0.24-2.887,0.722c-2.246,1.017-4.411,2.78-6.496,5.293c-2.565,3.101-3.849,5.987-3.849,8.66
				c0,1.016,0.28,1.965,0.842,2.847s1.563,1.323,3.007,1.323c2.513,0,5.693-1.323,9.543-3.97c3.849-2.646,7.163-5.305,9.943-7.979
				c0.642-0.642,0.963-0.668,0.963-0.08c0,0.374-0.161,0.695-0.481,0.962c-1.979,1.818-3.302,3.035-3.97,3.648
				c-0.669,0.615-1.992,1.712-3.969,3.288c-1.979,1.577-3.583,2.687-4.812,3.328c-3.797,1.977-7.017,2.967-9.663,2.967
				s-4.731-0.602-6.255-1.805c-1.523-1.202-2.285-2.873-2.285-5.012c0-4.543,2.03-8.46,6.094-11.748
				c4.063-3.287,8.313-4.932,12.751-4.932c2.993,0,4.998,0.642,6.014,1.925c0.428,0.642,0.642,1.323,0.642,2.045
				s-0.24,1.511-0.722,2.365c-0.962,1.658-2.767,3.115-5.413,4.371c-2.646,1.257-5.146,1.884-7.497,1.884
				c-0.91,0-1.403-0.08-1.484-0.24c-0.08-0.16-0.014-0.28,0.201-0.36c0.213-0.081,0.507-0.121,0.882-0.121
				C106.537,48.401,109.051,47.653,111.938,46.156z"/>
			<path fill="#C22E31" d="M101.473,65.529c-3.901,0-7.152-1.006-9.664-2.988c-2.862-2.259-4.376-5.485-4.376-9.328
				c0-6.177,2.813-11.718,8.134-16.023c5.049-4.085,10.503-6.156,16.211-6.156c4.745,0,8.22,1.35,10.326,4.012l0.264,0.362
				c0.913,1.369,1.442,2.918,1.546,4.512c0.077-0.003,0.155-0.005,0.233-0.005c3.208,0,5.721,2.602,5.721,5.922
				c0,1.935-0.845,3.772-2.323,5.069l-3.908,3.593c-0.781,0.719-2.136,1.844-4.26,3.536c-2.274,1.813-4.137,3.09-5.694,3.903
				C109.037,64.355,105.046,65.529,101.473,65.529z"/>
		</g>
		<g>
			<path fill="#C22E31" d="M126.692,55.377c0,1.443,0.722,2.165,2.165,2.165c0.854,0,2.205-0.347,4.05-1.042
				c1.844-0.694,4.236-2.218,7.177-4.571c2.939-2.352,4.918-4.049,5.934-5.092c1.016-1.042,1.631-1.55,1.845-1.523
				c0.213,0.027,0.293,0.188,0.24,0.481c-0.054,0.294-0.188,0.549-0.4,0.762c-4.545,4.65-8.313,7.992-11.307,10.023
				c-2.995,2.032-5.774,3.047-8.34,3.047c-2.193,0-3.717-0.509-4.571-1.523c-0.855-1.015-1.283-2.191-1.283-3.528
				c0-2.405,0.854-5.292,2.566-8.66c-3.102,3.315-4.651,4.384-4.651,3.207c0-0.213,0.161-0.453,0.481-0.722
				c2.512-2.03,5.212-4.972,8.1-8.82c5.292-6.896,9.435-12.964,12.429-18.203c0.534-1.016,0.802-1.765,0.802-2.245
				c0-1.123-0.615-1.336-1.844-0.642c-1.391,0.695-2.139,0.962-2.245,0.802c-0.108-0.16-0.028-0.374,0.24-0.642
				c1.283-0.963,3.047-1.871,5.293-2.727c2.245-0.854,4.089-1.31,5.532-1.363c2.246,0,3.368,0.695,3.368,2.085
				c0,0.802-0.389,1.872-1.162,3.208c-0.776,1.337-2.995,3.996-6.656,7.979c-3.662,3.983-5.894,6.482-6.695,7.498
				c-5.507,7.217-9.01,12.964-10.505,17.24C126.879,53.694,126.692,54.629,126.692,55.377z"/>
			<path fill="#C22E31" d="M128.056,65.127c-3.88,0-6.833-1.171-8.778-3.48c-1.685-1.998-2.576-4.444-2.576-7.071
				c0-0.274,0.007-0.551,0.021-0.83c-0.397-0.33-0.753-0.717-1.054-1.152c-0.48-0.696-1.053-1.863-1.053-3.471
				c0-1.077,0.318-3.15,2.448-4.937c2.222-1.797,4.63-4.436,7.233-7.906c3.741-4.876,6.898-9.331,9.44-13.32
				c-0.173-0.194-0.334-0.402-0.48-0.623c-1.571-2.321-1.195-5.454,0.939-7.582l0.272-0.271l0.309-0.231
				c1.711-1.284,3.882-2.418,6.636-3.467c2.84-1.081,5.222-1.643,7.286-1.72l0.204-0.004c6.126,0,8.868,3.81,8.868,7.585
				c0,1.827-0.604,3.722-1.902,5.964c-0.686,1.181-2.139,3.258-7.367,8.945c-4.657,5.065-6.025,6.675-6.427,7.184
				c-3.185,4.173-5.375,7.459-6.88,10.021c0.445-0.333,0.928-0.706,1.451-1.124c3.429-2.743,4.845-4.034,5.43-4.635
				c1.385-1.421,3.106-3.188,5.769-3.188l0.689,0.042c1.623,0.209,3.02,1.028,3.96,2.311c0.957,1.305,1.319,2.938,1.021,4.602
				c-0.257,1.41-0.922,2.676-1.924,3.679c-4.807,4.918-8.781,8.429-12.107,10.686C135.576,63.783,131.731,65.127,128.056,65.127z"/>
		</g>
		<g>
			<path fill="#C22E31" d="M180.82,38.458c-2.193,2.245-4.023,5.092-5.493,8.54c-1.471,3.448-2.205,5.868-2.205,7.258
				c0,1.391,0.547,2.085,1.644,2.085c1.095,0,2.913-0.802,5.453-2.406c2.538-1.604,5.439-3.875,8.7-6.815
				c0.694-0.642,1.043-0.562,1.043,0.24c0,0.107-0.054,0.214-0.16,0.32c-2.566,2.246-4.731,4.09-6.496,5.533
				c-1.764,1.443-3.862,2.82-6.295,4.13c-2.433,1.311-4.424,1.965-5.974,1.965c-1.925,0-3.355-0.429-4.29-1.283
				c-0.937-0.854-1.403-1.79-1.403-2.807c0-1.925,0.347-3.448,1.042-4.57c0.694-1.123,1.871-2.673,3.528-4.651
				c-0.589,0.481-1.511,1.283-2.767,2.405c-1.257,1.123-2.125,1.872-2.605,2.246c-0.481,0.374-0.723,0.268-0.723-0.321
				c0-0.373,0.429-0.908,1.283-1.604c0.854-0.694,2.713-2.459,5.573-5.293c2.859-2.833,4.812-4.517,5.854-5.052
				c1.042-0.534,1.896-0.802,2.565-0.802c0.668,0,1.163,0.094,1.483,0.28C180.9,38.044,180.98,38.245,180.82,38.458z
				 M181.862,34.208c-0.589-0.481-0.829-1.175-0.722-2.085c0.106-0.908,0.588-1.87,1.443-2.887c0.854-1.015,2.005-1.523,3.448-1.523
				c0.428,0,0.882,0.2,1.363,0.602c0.481,0.4,0.668,1.069,0.562,2.005c-0.107,0.936-0.535,1.817-1.283,2.646
				c-0.749,0.83-1.591,1.363-2.525,1.604C183.212,34.809,182.45,34.689,181.862,34.208z"/>
			<path fill="#C22E31" d="M171.037,64.807c-3.332,0-6.024-0.917-8.001-2.724c-2.638-2.407-3.192-5.063-3.192-6.866
				c0-0.244,0.004-0.486,0.013-0.725c-0.348-0.384-0.647-0.819-0.888-1.3c-0.431-0.861-0.649-1.825-0.649-2.867
				c0-3.175,2.406-5.133,3.312-5.869c0.326-0.266,1.477-1.271,5.174-4.935c4.31-4.27,6.065-5.448,7.215-6.038
				c0.55-0.281,1.082-0.521,1.602-0.717c-0.013-0.423,0.006-0.854,0.058-1.289c0.232-1.986,1.141-3.934,2.697-5.783
				c1.892-2.246,4.61-3.482,7.656-3.482c1.201,0,3.024,0.325,4.885,1.877c1.117,0.93,2.937,3.061,2.505,6.852
				c-0.241,2.099-1.138,4.018-2.667,5.71c-1.303,1.444-2.828,2.465-4.54,3.038c-0.19,0.74-0.527,1.447-0.999,2.075l-0.461,0.537
				c-0.942,0.964-1.813,2.101-2.605,3.397c0.984-0.809,2.014-1.698,3.086-2.665c1.307-1.207,2.806-1.843,4.404-1.843
				c2.822,0,5.822,2.162,5.822,6.168c0,1.572-0.629,3.067-1.771,4.209l-0.267,0.25c-2.594,2.27-4.826,4.172-6.636,5.651
				c-2.027,1.659-4.439,3.246-7.17,4.716C176.344,63.949,173.536,64.807,171.037,64.807z M182.583,29.316
				c-0.021,0.063-0.07,0.2-0.09,0.376c-0.069,0.603,0.247,1.904,1.386,2.851c0.368,0.307,1.157,0.67,2.153,0.67
				c0.112-0.009,0.334-0.092,0.532-0.23c0.015-0.061,0.028-0.134,0.039-0.219c0.092-0.781-0.263-1.998-1.26-2.813
				c-0.589-0.482-1.346-0.761-2.073-0.761c-0.257,0-0.428,0.036-0.488,0.053C182.698,29.263,182.631,29.292,182.583,29.316z"/>
		</g>
		<g>
			<path fill="#C22E31" d="M201.829,31.161c1.175-1.765,2.125-3.168,2.847-4.21c0.722-1.043,1.295-1.805,1.724-2.286
				c0.428-0.48,1.39-0.895,2.887-1.242c1.496-0.348,2.939-0.521,4.33-0.521c1.39,0,2.085,0.147,2.085,0.441
				s-1.149,1.537-3.447,3.729c-2.3,2.192-4.973,5.105-8.02,8.74c3.635,0.589,6.015,1.738,7.137,3.448
				c0.428,0.75,0.494,1.23,0.201,1.443c-0.295,0.215-0.63,0.135-1.003-0.24c-1.123-1.123-2.914-1.684-5.373-1.684
				c-1.069,0-2.272,0.107-3.608,0.32c-4.33,5.561-7.057,10.104-8.179,13.633c-0.375,1.016-0.562,1.871-0.562,2.565
				c0,1.872,0.774,2.807,2.325,2.807c1.656,0,3.982-1.148,6.977-3.448c3.901-2.939,7.297-5.854,10.185-8.74
				c0.533-0.588,0.882-0.722,1.042-0.401c0.16,0.321,0.026,0.669-0.4,1.043c-4.599,4.812-8.461,8.354-11.588,10.625
				s-6.002,3.408-8.62,3.408c-3.583,0-5.373-1.898-5.373-5.693c0-1.817,0.508-3.982,1.523-6.496l-1.443,1.363
				c-0.427,0.429-0.734,0.549-0.922,0.361c-0.187-0.187-0.281-0.361-0.281-0.521s0.215-0.427,0.642-0.802
				c3.902-3.421,6.576-6.015,8.02-7.778c-1.017,0.374-1.698,0.4-2.045,0.08c-0.349-0.321-0.589-0.748-0.722-1.283
				c-0.134-0.533,0.133-1.189,0.802-1.965c0.668-0.774,1.656-1.335,2.967-1.684c1.31-0.348,2.285-0.548,2.927-0.602
				C199.664,34.396,200.652,32.924,201.829,31.161z"/>
			<path fill="#C22E31" d="M192.768,66.09c-6.605,0-10.873-4.394-10.873-11.193c0-0.547,0.029-1.105,0.087-1.677
				c-0.786-1.072-1.21-2.326-1.21-3.616c0-2.727,1.89-4.388,2.511-4.934c1.451-1.271,2.641-2.35,3.615-3.263
				c-0.024-0.087-0.048-0.174-0.069-0.262c-0.405-1.616-0.396-4.135,1.976-6.883c1.399-1.623,3.323-2.77,5.717-3.406
				c0.38-0.101,0.737-0.191,1.075-0.271c0.503-0.748,1.056-1.574,1.658-2.478c1.195-1.795,2.164-3.226,2.9-4.289
				c0.871-1.259,1.551-2.153,2.138-2.812c1.247-1.401,3.021-2.309,5.75-2.942c1.896-0.44,3.771-0.664,5.574-0.664
				c7.038,0,7.585,4.548,7.585,5.941c0,2.683-1.579,4.302-5.151,7.709c-0.789,0.752-1.635,1.605-2.533,2.558
				c0.982,0.757,1.797,1.634,2.453,2.633l0.179,0.293c1.075,1.884,1.259,3.552,0.987,4.931c0.464,0.451,0.857,0.985,1.159,1.589
				c1.254,2.516,0.675,5.397-1.463,7.429c-4.82,5.034-8.816,8.683-12.212,11.149C200.548,64.59,196.56,66.09,192.768,66.09z
				 M204.543,44.297c-0.906,1.221-1.683,2.329-2.346,3.334c1.363-1.112,2.646-2.218,3.846-3.313
				C205.682,44.282,205.147,44.263,204.543,44.297z"/>
		</g>
	</g>
	<g>
		<path fill="#FFFFFF" d="M62.221,27.599c3.902-5.453,5.854-9.729,5.854-12.83c0-2.191-1.042-3.902-3.127-5.132
			c-1.551-0.908-3.608-1.363-6.175-1.363c-4.705,0-9.623,0.562-14.755,1.685c-9.677,2.084-17.481,4.491-23.415,7.217
			c-4.385,1.979-6.576,3.822-6.576,5.533c0,0.91,0.588,1.764,1.765,2.566c0.32,0.268,0.267,0.4-0.16,0.4
			c-0.429,0-0.75-0.08-0.963-0.24c-1.604-1.068-2.405-2.459-2.405-4.17s0.493-3.408,1.483-5.092
			c0.988-1.686,2.606-3.141,4.852-4.371c5.132-2.94,11.279-5.319,18.443-7.137c7.698-1.977,14.888-2.967,21.571-2.967
			c7.057,0,11.6,1.311,13.632,3.93c1.336,1.657,2.005,3.301,2.005,4.932c0,1.631-0.32,3.247-0.962,4.852
			c-1.177,3.26-3.075,6.469-5.693,9.621l-2.967,3.529c0.802,0.428,1.523,0.963,2.165,1.604c0.533,0.643,0.668,1.162,0.4,1.564
			c-0.268,0.4-0.749,0.375-1.443-0.08c-0.695-0.455-1.577-0.869-2.646-1.244c-7.377,8.822-11.547,13.887-12.509,15.197
			c-0.963,1.311-1.738,2.352-2.326,3.127c-0.589,0.775-0.976,1.297-1.162,1.563c-0.188,0.27-0.521,0.75-1.003,1.445
			s-0.815,1.256-1.002,1.684c-0.188,0.428-0.415,0.961-0.682,1.604c-0.429,1.014-0.642,2.285-0.642,3.809s0.642,2.285,1.925,2.285
			c0.373,0,0.802-0.066,1.282-0.199c0.481-0.135,0.722-0.068,0.722,0.199s-0.308,0.494-0.922,0.682
			c-0.615,0.188-1.283,0.281-2.005,0.281s-1.443-0.32-2.165-0.963c-0.722-0.641-1.082-1.631-1.082-2.967s0.48-2.887,1.443-4.65
			c0.962-1.764,2.432-3.996,4.41-6.697c1.978-2.697,4.423-5.879,7.337-9.541c2.913-3.662,4.852-6.135,5.814-7.418
			c-1.337-0.16-3.248-0.24-5.733-0.24c-2.486,0-5.895,0.455-10.225,1.363c-0.642,0.107-1.483,0.309-2.526,0.602
			c-1.042,0.293-1.804,0.494-2.285,0.602c-1.979,0.428-3.127,0.4-3.448-0.082c-0.749-0.426-1.122-0.934-1.122-1.523
			c0-0.586,0.507-1.295,1.523-2.125c1.015-0.828,2.646-1.455,4.892-1.883c2.245-0.428,4.57-0.643,6.977-0.643
			C53.987,25.916,58.532,26.476,62.221,27.599z"/>
		<path fill="#FFFFFF" d="M84.514,42.355c2.833-1.551,4.25-3.127,4.25-4.732c0-1.604-0.963-2.404-2.887-2.404
			c-0.91,0-1.872,0.24-2.887,0.721c-2.246,1.018-4.411,2.781-6.496,5.293c-2.565,3.102-3.849,5.988-3.849,8.66
			c0,1.016,0.28,1.965,0.842,2.848c0.562,0.881,1.563,1.322,3.007,1.322c2.513,0,5.693-1.322,9.543-3.969
			c3.849-2.646,7.163-5.305,9.943-7.979c0.642-0.643,0.963-0.668,0.963-0.08c0,0.373-0.161,0.695-0.481,0.961
			c-1.979,1.818-3.302,3.035-3.97,3.648c-0.669,0.615-1.992,1.713-3.969,3.289c-1.979,1.576-3.583,2.686-4.812,3.328
			c-3.797,1.977-7.017,2.967-9.663,2.967s-4.731-0.602-6.255-1.805s-2.285-2.873-2.285-5.012c0-4.543,2.03-8.461,6.094-11.748
			c4.063-3.287,8.313-4.932,12.751-4.932c2.993,0,4.998,0.641,6.014,1.924c0.428,0.643,0.642,1.324,0.642,2.045
			c0,0.723-0.24,1.512-0.722,2.365c-0.962,1.658-2.767,3.115-5.413,4.371c-2.646,1.258-5.146,1.885-7.497,1.885
			c-0.91,0-1.403-0.08-1.484-0.24c-0.08-0.16-0.014-0.281,0.201-0.361c0.213-0.08,0.507-0.121,0.882-0.121
			C79.113,44.599,81.627,43.851,84.514,42.355z"/>
		<path fill="#FFFFFF" d="M111.938,42.355c2.833-1.551,4.25-3.127,4.25-4.732c0-1.604-0.963-2.404-2.887-2.404
			c-0.91,0-1.872,0.24-2.887,0.721c-2.246,1.018-4.411,2.781-6.496,5.293c-2.565,3.102-3.849,5.988-3.849,8.66
			c0,1.016,0.28,1.965,0.842,2.848c0.562,0.881,1.563,1.322,3.007,1.322c2.513,0,5.693-1.322,9.543-3.969
			c3.849-2.646,7.163-5.305,9.943-7.979c0.642-0.643,0.963-0.668,0.963-0.08c0,0.373-0.161,0.695-0.481,0.961
			c-1.979,1.818-3.302,3.035-3.97,3.648c-0.669,0.615-1.992,1.713-3.969,3.289c-1.979,1.576-3.583,2.686-4.812,3.328
			c-3.797,1.977-7.017,2.967-9.663,2.967s-4.731-0.602-6.255-1.805s-2.285-2.873-2.285-5.012c0-4.543,2.03-8.461,6.094-11.748
			c4.063-3.287,8.313-4.932,12.751-4.932c2.993,0,4.998,0.641,6.014,1.924c0.428,0.643,0.642,1.324,0.642,2.045
			c0,0.723-0.24,1.512-0.722,2.365c-0.962,1.658-2.767,3.115-5.413,4.371c-2.646,1.258-5.146,1.885-7.497,1.885
			c-0.91,0-1.403-0.08-1.484-0.24c-0.08-0.16-0.014-0.281,0.201-0.361c0.213-0.08,0.507-0.121,0.882-0.121
			C106.537,44.599,109.051,43.851,111.938,42.355z"/>
		<path fill="#FFFFFF" d="M126.692,51.576c0,1.443,0.722,2.166,2.165,2.166c0.854,0,2.205-0.348,4.05-1.043
			c1.844-0.693,4.236-2.217,7.177-4.57c2.939-2.352,4.918-4.049,5.934-5.092s1.631-1.551,1.845-1.523
			c0.213,0.027,0.293,0.188,0.24,0.48c-0.054,0.295-0.188,0.549-0.4,0.762c-4.545,4.65-8.313,7.992-11.307,10.023
			c-2.995,2.033-5.774,3.047-8.34,3.047c-2.193,0-3.717-0.508-4.571-1.523c-0.855-1.014-1.283-2.191-1.283-3.527
			c0-2.406,0.854-5.293,2.566-8.66c-3.102,3.314-4.651,4.383-4.651,3.207c0-0.213,0.161-0.453,0.481-0.723
			c2.512-2.029,5.212-4.971,8.1-8.82c5.292-6.896,9.435-12.963,12.429-18.203c0.534-1.016,0.802-1.764,0.802-2.244
			c0-1.123-0.615-1.336-1.844-0.643c-1.391,0.695-2.139,0.963-2.245,0.803c-0.108-0.16-0.028-0.375,0.24-0.643
			c1.283-0.963,3.047-1.871,5.293-2.727c2.245-0.854,4.089-1.309,5.532-1.363c2.246,0,3.368,0.695,3.368,2.085
			c0,0.801-0.389,1.871-1.162,3.207c-0.776,1.338-2.995,3.996-6.656,7.979c-3.662,3.984-5.894,6.482-6.695,7.498
			c-5.507,7.217-9.01,12.965-10.505,17.24C126.879,49.892,126.692,50.828,126.692,51.576z"/>
		<path fill="#FFFFFF" d="M180.82,34.656c-2.193,2.246-4.023,5.092-5.493,8.541c-1.471,3.447-2.205,5.867-2.205,7.258
			s0.547,2.084,1.644,2.084c1.095,0,2.913-0.801,5.453-2.406c2.538-1.604,5.439-3.875,8.7-6.814c0.694-0.643,1.043-0.563,1.043,0.24
			c0,0.107-0.054,0.213-0.16,0.32c-2.566,2.246-4.731,4.09-6.496,5.533c-1.764,1.443-3.862,2.82-6.295,4.129
			c-2.433,1.311-4.424,1.965-5.974,1.965c-1.925,0-3.355-0.428-4.29-1.283c-0.937-0.854-1.403-1.789-1.403-2.807
			c0-1.924,0.347-3.447,1.042-4.57c0.694-1.123,1.871-2.672,3.528-4.65c-0.589,0.48-1.511,1.283-2.767,2.404
			c-1.257,1.123-2.125,1.873-2.605,2.246c-0.481,0.375-0.723,0.268-0.723-0.32c0-0.373,0.429-0.908,1.283-1.604
			s2.713-2.459,5.573-5.293c2.859-2.834,4.812-4.518,5.854-5.053c1.042-0.533,1.896-0.801,2.565-0.801
			c0.668,0,1.163,0.094,1.483,0.279C180.9,34.244,180.98,34.443,180.82,34.656z M181.862,30.406
			c-0.589-0.48-0.829-1.174-0.722-2.084c0.106-0.908,0.588-1.871,1.443-2.887c0.854-1.016,2.005-1.523,3.448-1.523
			c0.428,0,0.882,0.199,1.363,0.602c0.481,0.4,0.668,1.068,0.562,2.004c-0.107,0.936-0.535,1.818-1.283,2.646
			c-0.749,0.83-1.591,1.363-2.525,1.604C183.212,31.007,182.45,30.888,181.862,30.406z"/>
		<path fill="#FFFFFF" d="M201.829,27.359c1.175-1.764,2.125-3.168,2.847-4.209c0.722-1.043,1.295-1.805,1.724-2.287
			c0.428-0.48,1.39-0.895,2.887-1.242c1.496-0.348,2.939-0.521,4.33-0.521c1.39,0,2.085,0.148,2.085,0.441
			c0,0.295-1.149,1.537-3.447,3.729c-2.3,2.193-4.973,5.105-8.02,8.74c3.635,0.59,6.015,1.738,7.137,3.449
			c0.428,0.75,0.494,1.23,0.201,1.443c-0.295,0.215-0.63,0.135-1.003-0.24c-1.123-1.123-2.914-1.684-5.373-1.684
			c-1.069,0-2.272,0.107-3.608,0.32c-4.33,5.561-7.057,10.104-8.179,13.633c-0.375,1.016-0.562,1.871-0.562,2.564
			c0,1.873,0.774,2.807,2.325,2.807c1.656,0,3.982-1.148,6.977-3.447c3.901-2.939,7.297-5.854,10.185-8.74
			c0.533-0.588,0.882-0.723,1.042-0.402c0.16,0.322,0.026,0.67-0.4,1.043c-4.599,4.813-8.461,8.354-11.588,10.625
			s-6.002,3.408-8.62,3.408c-3.583,0-5.373-1.898-5.373-5.693c0-1.816,0.508-3.982,1.523-6.496l-1.443,1.363
			c-0.427,0.43-0.734,0.549-0.922,0.361c-0.187-0.186-0.281-0.361-0.281-0.521s0.215-0.426,0.642-0.801
			c3.902-3.422,6.576-6.016,8.02-7.779c-1.017,0.375-1.698,0.4-2.045,0.08c-0.349-0.32-0.589-0.748-0.722-1.283
			c-0.134-0.533,0.133-1.189,0.802-1.965c0.668-0.773,1.656-1.334,2.967-1.684c1.31-0.348,2.285-0.547,2.927-0.602
			C199.664,30.595,200.652,29.123,201.829,27.359z"/>
	</g>
	<path fill="#B53131" d="M0,119.262c0,0,0.056-0.255,0.163-0.747c0.121-0.49,0.229-1.232,0.531-2.167
		c0.525-1.884,1.454-4.651,3.385-7.8c1.899-3.151,4.716-6.707,8.581-10.111c3.837-3.432,8.678-6.718,14.294-9.621
		c2.811-1.447,5.801-2.83,8.949-4.127c3.154-1.277,6.473-2.447,9.912-3.557c3.445-1.086,7.02-2.086,10.693-3.014
		c3.677-0.921,7.467-1.707,11.329-2.449c7.735-1.42,15.782-2.59,23.997-3.331c8.211-0.778,16.576-1.213,24.941-1.438
		c8.368-0.153,16.734-0.057,24.96,0.237c8.227,0.281,16.306,0.885,24.108,1.562c7.803,0.676,15.322,1.567,22.434,2.522
		c7.114,0.939,13.814,2.007,19.98,3.074c6.169,1.057,11.796,2.178,16.771,3.212c4.975,1.044,9.299,2.003,12.854,2.817
		c3.557,0.81,6.333,1.521,8.227,2c1.895,0.479,2.904,0.734,2.904,0.734s-4.104-0.717-11.283-1.971
		c-3.59-0.621-7.953-1.344-12.965-2.115c-5.016-0.754-10.678-1.561-16.855-2.407c-6.184-0.813-12.889-1.616-19.988-2.38
		c-7.1-0.752-14.6-1.401-22.361-1.977c-7.762-0.572-15.795-0.936-23.955-1.213c-8.162-0.247-16.457-0.289-24.742-0.1
		c-8.285,0.176-16.566,0.561-24.684,1.283c-4.061,0.346-8.076,0.785-12.041,1.25c-3.961,0.485-7.86,1.063-11.684,1.696
		c-7.635,1.324-14.961,2.9-21.779,4.853c-6.807,1.978-13.121,4.256-18.707,6.884c-5.57,2.649-10.443,5.577-14.355,8.706
		c-3.934,3.106-6.858,6.414-8.883,9.396c-2.027,2.983-3.194,5.615-3.831,7.444c-0.365,0.903-0.528,1.64-0.685,2.119
		C0.073,119.012,0,119.262,0,119.262z"/>
	<g>
		<path fill-rule="evenodd" clip-rule="evenodd" fill="#B53131" stroke="#B53131" stroke-width="4" stroke-miterlimit="10" d="
			M257.937,26.494c10.299,3.019,16.197,13.814,13.181,24.112c-3.017,10.297-13.815,16.196-24.108,13.175
			c-10.297-3.016-16.198-13.811-13.18-24.104C236.849,29.379,247.64,23.475,257.937,26.494z"/>
		<path fill-rule="evenodd" clip-rule="evenodd" fill="#B53131" stroke="#B53131" stroke-width="4" stroke-miterlimit="10" d="
			M241.158,96.196c-8.108,7.035-20.384,6.163-27.409-1.942c-7.027-8.108-6.164-20.377,1.941-27.407
			c8.111-7.03,20.383-6.161,27.414,1.942C250.134,76.896,249.261,89.169,241.158,96.196z"/>
		<g>
			<path fill-rule="evenodd" clip-rule="evenodd" fill="#FFFFFF" d="M267.868,37.228c4.393,8.522,1.026,18.97-7.518,23.354
				c-8.441,4.331-18.978,0.926-23.307-7.531c-4.367-8.525-0.984-18.973,7.557-23.353C253.081,25.337,263.483,28.705,267.868,37.228z
				 M257.724,56.526c3.988-2.05,6.391-5.659,6.573-9.407c0.058-1.34-0.111-2.65-0.894-3.782c-0.705-1.015-1.512-1.104-2.5-0.343
				c-1.508,1.164-3.008,2.337-4.645,3.312c-3.283,1.976-6.775,3.46-10.471,4.46c-1.18,0.317-1.566,1.235-1.072,2.36
				c0.431,1.019,1.139,1.821,2.037,2.442C250.419,58.097,254.256,58.037,257.724,56.526z M253.49,39.785
				c0.438,0.73,0.985,1.416,1.829,1.811c1.318,0.611,2.566-0.01,2.877-1.432c0.35-1.668-0.752-3.813-2.316-4.496
				c-1.34-0.588-2.556,0.047-2.834,1.493C252.863,38.066,253.096,38.914,253.49,39.785z M243.234,45.034
				c0.409,0.812,1.003,1.458,1.839,1.838c1.35,0.608,2.541,0.001,2.857-1.446c0.375-1.707-0.789-3.879-2.411-4.513
				c-1.303-0.511-2.425,0.079-2.716,1.455C242.602,43.3,242.788,44.188,243.234,45.034z"/>
			<path fill-rule="evenodd" clip-rule="evenodd" fill="#B53131" d="M257.724,56.526c-3.468,1.511-7.305,1.571-10.971-0.958
				c-0.898-0.621-1.606-1.424-2.037-2.442c-0.494-1.125-0.107-2.043,1.072-2.36c3.695-1,7.188-2.484,10.471-4.46
				c1.637-0.975,3.137-2.147,4.645-3.312c0.988-0.762,1.795-0.672,2.5,0.343c0.782,1.132,0.951,2.442,0.894,3.782
				C264.114,50.867,261.712,54.476,257.724,56.526z M261.903,44.639c-2.256,1.937-4.672,3.449-7.212,4.756
				c-2.542,1.315-5.193,2.388-8.051,3.128C251.685,55.648,261.435,50.616,261.903,44.639z"/>
			<path fill-rule="evenodd" clip-rule="evenodd" fill="#B53131" d="M253.49,39.785c-0.395-0.871-0.627-1.719-0.444-2.624
				c0.278-1.446,1.494-2.081,2.834-1.493c1.564,0.684,2.666,2.828,2.316,4.496c-0.311,1.422-1.559,2.043-2.877,1.432
				C254.476,41.201,253.929,40.515,253.49,39.785z"/>
			<path fill-rule="evenodd" clip-rule="evenodd" fill="#B53131" d="M243.234,45.034c-0.446-0.846-0.633-1.733-0.431-2.666
				c0.291-1.376,1.413-1.966,2.716-1.455c1.622,0.634,2.786,2.806,2.411,4.513c-0.316,1.447-1.508,2.055-2.857,1.446
				C244.237,46.492,243.644,45.845,243.234,45.034z"/>
			<path fill-rule="evenodd" clip-rule="evenodd" fill="#FDFDFC" d="M261.903,44.639c-0.469,5.977-10.219,11.009-15.263,7.884
				c2.857-0.74,5.509-1.813,8.051-3.128C257.231,48.088,259.647,46.576,261.903,44.639z"/>
		</g>
		<g>
			<path fill-rule="evenodd" clip-rule="evenodd" fill="#FFFFFF" d="M231.18,98.628c-9.406,1.539-18.303-4.875-19.845-14.305
				c-1.551-9.469,4.859-18.39,14.318-19.925c9.39-1.522,18.326,4.913,19.869,14.313C247.079,88.149,240.644,97.082,231.18,98.628z
				 M228.581,82.394c-4.004,0.856-6.988,2.955-8.593,6.791c-0.526,1.268-0.737,2.602-0.334,3.957
				c0.336,1.143,1.05,1.486,2.188,1.098c1.74-0.596,3.469-1.215,5.254-1.679c3.818-0.985,7.688-1.196,11.603-1.083
				c1.247,0.037,1.854-0.672,1.732-1.916c-0.135-1.368-0.743-2.527-1.636-3.533C236.052,82.949,232.571,81.952,228.581,82.394z
				 M233.189,78.332c1.607-0.259,2.669-1.271,3.524-2.572c0.135-0.209,0.247-0.434,0.064-0.683
				c-0.209-0.274-0.461-0.208-0.742-0.093c-0.793,0.335-1.614,0.549-2.498,0.544c-1.561-0.006-3.059-0.228-4.387-1.114
				c-0.214-0.139-0.436-0.227-0.678-0.051c-0.21,0.158-0.208,0.354-0.162,0.58C228.675,76.908,231.174,78.64,233.189,78.332z
				 M222.817,80.041c2.08-0.358,3.842-2.794,3.519-4.853c-0.036-0.228-0.097-0.437-0.327-0.517c-0.325-0.107-0.489,0.13-0.676,0.344
				c-1.633,1.915-3.691,2.887-6.217,2.828c-0.296-0.006-0.569,0.012-0.684,0.334c-0.1,0.283,0.082,0.47,0.281,0.622
				C219.938,79.707,221.248,80.303,222.817,80.041z M219.749,75.099c0.096-0.043,0.295-0.115,0.479-0.224
				c2.341-1.298,4.002-3.187,4.926-5.72c0.234-0.667,0.229-1.26-0.518-1.514c-0.686-0.23-1.088,0.192-1.299,0.825
				c-0.396,1.146-1.021,2.161-1.863,3.028c-0.698,0.741-1.51,1.34-2.407,1.824c-0.506,0.261-0.712,0.68-0.532,1.221
				C218.707,75.047,219.112,75.223,219.749,75.099z M234.634,72.664c0.621-0.079,0.911-0.422,0.925-0.938
				c0.011-0.582-0.375-0.87-0.913-0.965c-2.304-0.402-4.213-1.473-5.658-3.316c-0.404-0.525-0.908-0.677-1.432-0.279
				c-0.534,0.414-0.487,0.943-0.092,1.462c1.729,2.244,4.021,3.54,6.787,4.028C234.4,72.682,234.563,72.658,234.634,72.664z"/>
			<path fill-rule="evenodd" clip-rule="evenodd" fill="#B53131" d="M228.581,82.394c3.99-0.442,7.471,0.555,10.215,3.635
				c0.893,1.006,1.501,2.165,1.636,3.533c0.122,1.244-0.485,1.953-1.732,1.916c-3.914-0.113-7.784,0.098-11.603,1.083
				c-1.785,0.464-3.514,1.083-5.254,1.679c-1.139,0.389-1.853,0.045-2.188-1.098c-0.403-1.355-0.192-2.689,0.334-3.957
				C221.593,85.349,224.577,83.25,228.581,82.394z M237.136,86.886c-2.801-2.77-5.949-3.124-9.352-2.278
				c-2.603,0.647-4.609,2.092-5.904,4.776C226.856,87.349,231.803,86.552,237.136,86.886z"/>
			<path fill-rule="evenodd" clip-rule="evenodd" fill="#B53131" d="M233.189,78.332c-2.016,0.309-4.515-1.424-4.878-3.389
				c-0.046-0.227-0.048-0.422,0.162-0.58c0.242-0.176,0.464-0.088,0.678,0.051c1.328,0.887,2.826,1.108,4.387,1.114
				c0.884,0.005,1.705-0.209,2.498-0.544c0.281-0.115,0.533-0.182,0.742,0.093c0.183,0.249,0.07,0.474-0.064,0.683
				C235.858,77.06,234.797,78.073,233.189,78.332z"/>
			<path fill-rule="evenodd" clip-rule="evenodd" fill="#B53131" d="M222.817,80.041c-1.569,0.263-2.879-0.334-4.104-1.241
				c-0.199-0.152-0.381-0.339-0.281-0.622c0.114-0.322,0.388-0.34,0.684-0.334c2.525,0.059,4.584-0.913,6.217-2.828
				c0.187-0.214,0.351-0.451,0.676-0.344c0.23,0.08,0.291,0.289,0.327,0.517C226.659,77.247,224.897,79.682,222.817,80.041z"/>
			<path fill-rule="evenodd" clip-rule="evenodd" fill="#B53131" d="M219.749,75.099c-0.637,0.124-1.042-0.052-1.215-0.559
				c-0.18-0.541,0.026-0.96,0.532-1.221c0.897-0.484,1.709-1.083,2.407-1.824c0.842-0.867,1.468-1.883,1.863-3.028
				c0.211-0.633,0.613-1.056,1.299-0.825c0.746,0.254,0.752,0.847,0.518,1.514c-0.924,2.533-2.585,4.422-4.926,5.72
				C220.044,74.984,219.845,75.056,219.749,75.099z"/>
			<path fill-rule="evenodd" clip-rule="evenodd" fill="#B53131" d="M234.634,72.664c-0.07-0.006-0.233,0.019-0.383-0.008
				c-2.766-0.488-5.058-1.784-6.787-4.028c-0.396-0.519-0.442-1.048,0.092-1.462c0.523-0.397,1.027-0.246,1.432,0.279
				c1.445,1.844,3.354,2.914,5.658,3.316c0.538,0.095,0.924,0.383,0.913,0.965C235.545,72.242,235.255,72.584,234.634,72.664z"/>
			<path fill-rule="evenodd" clip-rule="evenodd" fill="#FDFDFC" d="M237.136,86.886c-5.333-0.334-10.279,0.463-15.256,2.498
				c1.295-2.685,3.302-4.129,5.904-4.776C231.187,83.762,234.335,84.117,237.136,86.886z"/>
		</g>
	</g>
</g>
</svg>
